<mxfile host="b04b2761-a958-4f0f-afa8-2019f17b0e5d" modified="2020-08-24T06:41:29.170Z" agent="5.0 (Windows NT 10.0; Win64; x64) AppleWebKit/537.36 (KHTML, like Gecko) Code/1.47.3 Chrome/78.0.3904.130 Electron/7.3.2 Safari/537.36" etag="hKyEYK_9zEFbeRaDD7bs" version="13.1.3" pages="2">
    <diagram id="6hGFLwfOUW9BJ-s0fimq" name="Page-1">
        <mxGraphModel dx="652" dy="480" grid="0" gridSize="10" guides="1" tooltips="1" connect="1" arrows="1" fold="1" page="1" pageScale="1" pageWidth="827" pageHeight="1169" background="#808080" math="0" shadow="0">
            <root>
                <mxCell id="0"/>
                <mxCell id="1" parent="0"/>
                <mxCell id="2" value="39" style="align=center;strokeColor=#FFFF66;html=1;fillColor=none;strokeWidth=2;" parent="1" vertex="1">
                    <mxGeometry x="163" y="760" width="22" height="22" as="geometry"/>
                </mxCell>
                <mxCell id="3" value="62" style="align=center;strokeColor=#FFFF66;html=1;fillColor=none;strokeWidth=2;" parent="1" vertex="1">
                    <mxGeometry x="204" y="760" width="22" height="22" as="geometry"/>
                </mxCell>
                <mxCell id="4" value="71" style="align=center;strokeColor=#FFFF66;html=1;fillColor=none;strokeWidth=2;" parent="1" vertex="1">
                    <mxGeometry x="245" y="760" width="22" height="22" as="geometry"/>
                </mxCell>
                <mxCell id="5" value="87" style="align=center;html=1;strokeWidth=2;fillColor=none;strokeColor=#FFFF66;" parent="1" vertex="1">
                    <mxGeometry x="285" y="760" width="22" height="22" as="geometry"/>
                </mxCell>
                <mxCell id="6" value="39" style="endArrow=none;html=1;" parent="1" edge="1">
                    <mxGeometry width="50" height="50" relative="1" as="geometry">
                        <mxPoint x="163" y="808" as="sourcePoint"/>
                        <mxPoint x="185" y="808" as="targetPoint"/>
                    </mxGeometry>
                </mxCell>
                <mxCell id="7" value="" style="edgeStyle=elbowEdgeStyle;elbow=vertical;endArrow=none;html=1;endFill=0;startArrow=none;startFill=0;endSize=3;startSize=3;" parent="1" edge="1">
                    <mxGeometry width="50" height="50" relative="1" as="geometry">
                        <mxPoint x="170" y="786.9999999999999" as="sourcePoint"/>
                        <mxPoint x="218" y="787" as="targetPoint"/>
                        <Array as="points">
                            <mxPoint x="194" y="794"/>
                        </Array>
                    </mxGeometry>
                </mxCell>
                <mxCell id="9" value="" style="curved=1;endArrow=classic;html=1;startArrow=classic;startFill=1;endFill=1;startSize=3;endSize=3;" parent="1" edge="1">
                    <mxGeometry width="50" height="50" relative="1" as="geometry">
                        <mxPoint x="188" y="808" as="sourcePoint"/>
                        <mxPoint x="254" y="786" as="targetPoint"/>
                        <Array as="points">
                            <mxPoint x="213" y="796"/>
                            <mxPoint x="248" y="808"/>
                        </Array>
                    </mxGeometry>
                </mxCell>
                <mxCell id="12" value="" style="curved=1;endArrow=classic;html=1;startArrow=classic;startFill=1;endFill=1;startSize=3;endSize=3;" parent="1" edge="1">
                    <mxGeometry width="50" height="50" relative="1" as="geometry">
                        <mxPoint x="190" y="831" as="sourcePoint"/>
                        <mxPoint x="296.08" y="786" as="targetPoint"/>
                        <Array as="points">
                            <mxPoint x="231" y="822"/>
                            <mxPoint x="289.08" y="799"/>
                        </Array>
                    </mxGeometry>
                </mxCell>
                <mxCell id="14" value="2" style="endArrow=none;html=1;" parent="1" edge="1">
                    <mxGeometry width="50" height="50" relative="1" as="geometry">
                        <mxPoint x="329" y="850" as="sourcePoint"/>
                        <mxPoint x="351" y="850" as="targetPoint"/>
                    </mxGeometry>
                </mxCell>
                <mxCell id="15" value="" style="endArrow=none;html=1;" parent="1" edge="1">
                    <mxGeometry width="50" height="50" relative="1" as="geometry">
                        <mxPoint x="161" y="894" as="sourcePoint"/>
                        <mxPoint x="359" y="894" as="targetPoint"/>
                    </mxGeometry>
                </mxCell>
                <mxCell id="16" value="4 7 3 2" style="edgeLabel;html=1;align=center;verticalAlign=middle;resizable=0;points=[];" parent="15" vertex="1" connectable="0">
                    <mxGeometry x="0.0616" y="-1" relative="1" as="geometry">
                        <mxPoint as="offset"/>
                    </mxGeometry>
                </mxCell>
                <mxCell id="17" value="4" style="align=center;strokeColor=#FFFF66;html=1;fillColor=none;strokeWidth=2;" parent="1" vertex="1">
                    <mxGeometry x="173" y="920" width="22" height="22" as="geometry"/>
                </mxCell>
                <mxCell id="18" value="7" style="align=center;strokeColor=#FFFF66;html=1;fillColor=none;strokeWidth=2;" parent="1" vertex="1">
                    <mxGeometry x="229" y="920" width="22" height="22" as="geometry"/>
                </mxCell>
                <mxCell id="19" value="3" style="align=center;strokeColor=#A50040;html=1;fillColor=#d80073;strokeWidth=2;fontColor=#ffffff;" parent="1" vertex="1">
                    <mxGeometry x="285" y="920" width="22" height="22" as="geometry"/>
                </mxCell>
                <mxCell id="20" value="2" style="align=center;strokeColor=#FFFF66;html=1;fillColor=none;strokeWidth=2;" parent="1" vertex="1">
                    <mxGeometry x="340" y="920" width="22" height="22" as="geometry"/>
                </mxCell>
                <mxCell id="21" value="7" style="endArrow=none;html=1;" parent="1" edge="1">
                    <mxGeometry width="50" height="50" relative="1" as="geometry">
                        <mxPoint x="174" y="971" as="sourcePoint"/>
                        <mxPoint x="196" y="971" as="targetPoint"/>
                    </mxGeometry>
                </mxCell>
                <mxCell id="22" value="" style="edgeStyle=elbowEdgeStyle;elbow=vertical;endArrow=none;html=1;endFill=0;" parent="1" edge="1">
                    <mxGeometry width="50" height="50" relative="1" as="geometry">
                        <mxPoint x="183" y="947" as="sourcePoint"/>
                        <mxPoint x="242" y="947" as="targetPoint"/>
                        <Array as="points">
                            <mxPoint x="213" y="954"/>
                        </Array>
                    </mxGeometry>
                </mxCell>
                <mxCell id="23" value="4" style="endArrow=none;html=1;" parent="1" edge="1">
                    <mxGeometry width="50" height="50" relative="1" as="geometry">
                        <mxPoint x="229" y="972" as="sourcePoint"/>
                        <mxPoint x="251" y="972" as="targetPoint"/>
                    </mxGeometry>
                </mxCell>
                <mxCell id="24" value="" style="curved=1;endArrow=classic;html=1;startArrow=classic;startFill=1;endFill=1;startSize=3;endSize=3;" parent="1" edge="1">
                    <mxGeometry width="50" height="50" relative="1" as="geometry">
                        <mxPoint x="243" y="964" as="sourcePoint"/>
                        <mxPoint x="296" y="944" as="targetPoint"/>
                        <Array as="points">
                            <mxPoint x="248" y="950"/>
                            <mxPoint x="290" y="964"/>
                        </Array>
                    </mxGeometry>
                </mxCell>
                <mxCell id="25" value="4" style="endArrow=none;html=1;" parent="1" edge="1">
                    <mxGeometry width="50" height="50" relative="1" as="geometry">
                        <mxPoint x="232" y="991" as="sourcePoint"/>
                        <mxPoint x="254" y="991" as="targetPoint"/>
                    </mxGeometry>
                </mxCell>
                <mxCell id="26" value="3" style="endArrow=none;html=1;" parent="1" edge="1">
                    <mxGeometry width="50" height="50" relative="1" as="geometry">
                        <mxPoint x="285" y="992" as="sourcePoint"/>
                        <mxPoint x="307" y="992" as="targetPoint"/>
                    </mxGeometry>
                </mxCell>
                <mxCell id="27" value="" style="endArrow=none;html=1;" parent="1" edge="1">
                    <mxGeometry width="50" height="50" relative="1" as="geometry">
                        <mxPoint x="168" y="1013" as="sourcePoint"/>
                        <mxPoint x="366" y="1013" as="targetPoint"/>
                    </mxGeometry>
                </mxCell>
                <mxCell id="28" value="7 4 3 2" style="edgeLabel;html=1;align=center;verticalAlign=middle;resizable=0;points=[];" parent="27" vertex="1" connectable="0">
                    <mxGeometry x="0.0616" y="-1" relative="1" as="geometry">
                        <mxPoint as="offset"/>
                    </mxGeometry>
                </mxCell>
                <mxCell id="29" value="7" style="align=center;strokeColor=#FFFF66;html=1;fillColor=none;strokeWidth=2;" parent="1" vertex="1">
                    <mxGeometry x="178" y="1056" width="22" height="22" as="geometry"/>
                </mxCell>
                <mxCell id="30" value="4" style="align=center;strokeColor=#A50040;html=1;fillColor=#d80073;strokeWidth=2;fontColor=#ffffff;" parent="1" vertex="1">
                    <mxGeometry x="234" y="1056" width="22" height="22" as="geometry"/>
                </mxCell>
                <mxCell id="31" value="3" style="align=center;strokeColor=#FFFF66;html=1;fillColor=none;strokeWidth=2;" parent="1" vertex="1">
                    <mxGeometry x="290" y="1056" width="22" height="22" as="geometry"/>
                </mxCell>
                <mxCell id="32" value="2" style="align=center;strokeColor=#FFFF66;html=1;fillColor=none;strokeWidth=2;" parent="1" vertex="1">
                    <mxGeometry x="345" y="1056" width="22" height="22" as="geometry"/>
                </mxCell>
                <mxCell id="33" value="7" style="endArrow=none;html=1;" parent="1" edge="1">
                    <mxGeometry width="50" height="50" relative="1" as="geometry">
                        <mxPoint x="179" y="1107" as="sourcePoint"/>
                        <mxPoint x="201" y="1107" as="targetPoint"/>
                    </mxGeometry>
                </mxCell>
                <mxCell id="34" value="" style="edgeStyle=elbowEdgeStyle;elbow=vertical;endArrow=none;html=1;endFill=0;" parent="1" edge="1">
                    <mxGeometry width="50" height="50" relative="1" as="geometry">
                        <mxPoint x="188" y="1083" as="sourcePoint"/>
                        <mxPoint x="247" y="1083" as="targetPoint"/>
                        <Array as="points">
                            <mxPoint x="218" y="1090"/>
                        </Array>
                    </mxGeometry>
                </mxCell>
                <mxCell id="35" value="4" style="endArrow=none;html=1;" parent="1" edge="1">
                    <mxGeometry width="50" height="50" relative="1" as="geometry">
                        <mxPoint x="234" y="1108" as="sourcePoint"/>
                        <mxPoint x="256" y="1108" as="targetPoint"/>
                    </mxGeometry>
                </mxCell>
                <mxCell id="36" value="" style="endArrow=none;html=1;" parent="1" edge="1">
                    <mxGeometry width="50" height="50" relative="1" as="geometry">
                        <mxPoint x="173" y="1127" as="sourcePoint"/>
                        <mxPoint x="371" y="1127" as="targetPoint"/>
                    </mxGeometry>
                </mxCell>
                <mxCell id="37" value="7 4 3 2" style="edgeLabel;html=1;align=center;verticalAlign=middle;resizable=0;points=[];" parent="36" vertex="1" connectable="0">
                    <mxGeometry x="0.0616" y="-1" relative="1" as="geometry">
                        <mxPoint as="offset"/>
                    </mxGeometry>
                </mxCell>
                <mxCell id="39" value="43" style="align=center;strokeColor=#FFFF66;html=1;fillColor=none;strokeWidth=2;fontColor=#ffffff;" parent="1" vertex="1">
                    <mxGeometry x="326" y="760" width="22" height="22" as="geometry"/>
                </mxCell>
                <mxCell id="40" value="29" style="align=center;strokeColor=#FFFF66;html=1;fillColor=none;strokeWidth=2;fontColor=#ffffff;" parent="1" vertex="1">
                    <mxGeometry x="367" y="760" width="22" height="22" as="geometry"/>
                </mxCell>
                <mxCell id="41" value="39" style="endArrow=none;html=1;" parent="1" edge="1">
                    <mxGeometry x="0.0909" width="50" height="50" relative="1" as="geometry">
                        <mxPoint x="163" y="831" as="sourcePoint"/>
                        <mxPoint x="185" y="831" as="targetPoint"/>
                        <mxPoint as="offset"/>
                    </mxGeometry>
                </mxCell>
                <mxCell id="42" value="39" style="endArrow=none;html=1;" parent="1" edge="1">
                    <mxGeometry width="50" height="50" relative="1" as="geometry">
                        <mxPoint x="163" y="851" as="sourcePoint"/>
                        <mxPoint x="185" y="851" as="targetPoint"/>
                    </mxGeometry>
                </mxCell>
                <mxCell id="43" value="" style="curved=1;endArrow=classic;html=1;startArrow=classic;startFill=1;endFill=1;startSize=3;endSize=3;" parent="1" edge="1">
                    <mxGeometry width="50" height="50" relative="1" as="geometry">
                        <mxPoint x="190" y="850" as="sourcePoint"/>
                        <mxPoint x="337" y="787" as="targetPoint"/>
                        <Array as="points">
                            <mxPoint x="238" y="841"/>
                            <mxPoint x="304" y="818"/>
                        </Array>
                    </mxGeometry>
                </mxCell>
                <mxCell id="44" value="29" style="endArrow=none;html=1;" parent="1" edge="1">
                    <mxGeometry width="50" height="50" relative="1" as="geometry">
                        <mxPoint x="163" y="871" as="sourcePoint"/>
                        <mxPoint x="185" y="871" as="targetPoint"/>
                    </mxGeometry>
                </mxCell>
                <mxCell id="45" value="" style="curved=1;endArrow=classic;html=1;startArrow=classic;startFill=1;endFill=1;startSize=3;endSize=3;" parent="1" edge="1">
                    <mxGeometry width="50" height="50" relative="1" as="geometry">
                        <mxPoint x="193" y="870" as="sourcePoint"/>
                        <mxPoint x="379" y="788" as="targetPoint"/>
                        <Array as="points">
                            <mxPoint x="241" y="861"/>
                            <mxPoint x="327" y="832"/>
                        </Array>
                    </mxGeometry>
                </mxCell>
            </root>
        </mxGraphModel>
    </diagram>
    <diagram name="Page-1 的副本" id="9k-Ctn23nGuPX05Dwiv2">
        <mxGraphModel dx="652" dy="480" grid="0" gridSize="10" guides="1" tooltips="1" connect="1" arrows="1" fold="1" page="1" pageScale="1" pageWidth="827" pageHeight="1169" background="#808080" math="0" shadow="0">
            <root>
                <mxCell id="HAR-AQ3kyV8gS99WFkk1-0"/>
                <mxCell id="HAR-AQ3kyV8gS99WFkk1-1" parent="HAR-AQ3kyV8gS99WFkk1-0"/>
                <mxCell id="rqb1CrrwyegYZYvFVRAE-30" value="" style="endArrow=none;html=1;startArrow=none;startFill=0;endFill=0;startSize=3;endSize=3;edgeStyle=orthogonalEdgeStyle;" parent="HAR-AQ3kyV8gS99WFkk1-1" edge="1">
                    <mxGeometry width="50" height="50" relative="1" as="geometry">
                        <mxPoint x="224.1" y="993" as="sourcePoint"/>
                        <mxPoint x="380" y="943" as="targetPoint"/>
                        <Array as="points">
                            <mxPoint x="224" y="1000"/>
                            <mxPoint x="380" y="1000"/>
                            <mxPoint x="380" y="943"/>
                        </Array>
                    </mxGeometry>
                </mxCell>
                <mxCell id="HAR-AQ3kyV8gS99WFkk1-2" value="39" style="align=center;strokeColor=#A50040;html=1;fillColor=#d80073;strokeWidth=2;fontColor=#ffffff;" parent="HAR-AQ3kyV8gS99WFkk1-1" vertex="1">
                    <mxGeometry x="163" y="760" width="22" height="22" as="geometry"/>
                </mxCell>
                <mxCell id="HAR-AQ3kyV8gS99WFkk1-3" value="62" style="align=center;strokeColor=#FFFF66;html=1;fillColor=none;strokeWidth=2;" parent="HAR-AQ3kyV8gS99WFkk1-1" vertex="1">
                    <mxGeometry x="204" y="760" width="22" height="22" as="geometry"/>
                </mxCell>
                <mxCell id="HAR-AQ3kyV8gS99WFkk1-4" value="71" style="align=center;strokeColor=#FFFF66;html=1;fillColor=none;strokeWidth=2;" parent="HAR-AQ3kyV8gS99WFkk1-1" vertex="1">
                    <mxGeometry x="245" y="760" width="22" height="22" as="geometry"/>
                </mxCell>
                <mxCell id="HAR-AQ3kyV8gS99WFkk1-5" value="87" style="align=center;html=1;strokeWidth=2;fillColor=none;strokeColor=#FFFF66;" parent="HAR-AQ3kyV8gS99WFkk1-1" vertex="1">
                    <mxGeometry x="285" y="760" width="22" height="22" as="geometry"/>
                </mxCell>
                <mxCell id="HAR-AQ3kyV8gS99WFkk1-7" value="" style="edgeStyle=elbowEdgeStyle;elbow=vertical;endArrow=none;html=1;endFill=0;startArrow=none;startFill=0;endSize=3;startSize=3;" parent="HAR-AQ3kyV8gS99WFkk1-1" edge="1">
                    <mxGeometry width="50" height="50" relative="1" as="geometry">
                        <mxPoint x="170" y="786.9999999999999" as="sourcePoint"/>
                        <mxPoint x="218" y="787" as="targetPoint"/>
                        <Array as="points">
                            <mxPoint x="194" y="794"/>
                        </Array>
                    </mxGeometry>
                </mxCell>
                <mxCell id="HAR-AQ3kyV8gS99WFkk1-11" value="" style="endArrow=none;html=1;" parent="HAR-AQ3kyV8gS99WFkk1-1" edge="1">
                    <mxGeometry width="50" height="50" relative="1" as="geometry">
                        <mxPoint x="165" y="873" as="sourcePoint"/>
                        <mxPoint x="377" y="873" as="targetPoint"/>
                    </mxGeometry>
                </mxCell>
                <mxCell id="HAR-AQ3kyV8gS99WFkk1-12" value="29 62 71 87 43 39" style="edgeLabel;html=1;align=center;verticalAlign=middle;resizable=0;points=[];" parent="HAR-AQ3kyV8gS99WFkk1-11" vertex="1" connectable="0">
                    <mxGeometry x="0.0616" y="-1" relative="1" as="geometry">
                        <mxPoint as="offset"/>
                    </mxGeometry>
                </mxCell>
                <mxCell id="HAR-AQ3kyV8gS99WFkk1-17" value="29" style="endArrow=none;html=1;" parent="HAR-AQ3kyV8gS99WFkk1-1" edge="1">
                    <mxGeometry width="50" height="50" relative="1" as="geometry">
                        <mxPoint x="159" y="854" as="sourcePoint"/>
                        <mxPoint x="181" y="854" as="targetPoint"/>
                    </mxGeometry>
                </mxCell>
                <mxCell id="HAR-AQ3kyV8gS99WFkk1-34" value="43" style="align=center;strokeColor=#FFFF66;html=1;fillColor=none;strokeWidth=2;fontColor=#ffffff;" parent="HAR-AQ3kyV8gS99WFkk1-1" vertex="1">
                    <mxGeometry x="326" y="760" width="22" height="22" as="geometry"/>
                </mxCell>
                <mxCell id="HAR-AQ3kyV8gS99WFkk1-35" value="29" style="align=center;strokeColor=#FFFF66;html=1;fillColor=none;strokeWidth=2;fontColor=#ffffff;" parent="HAR-AQ3kyV8gS99WFkk1-1" vertex="1">
                    <mxGeometry x="367" y="760" width="22" height="22" as="geometry"/>
                </mxCell>
                <mxCell id="sCuLyt8ogJQryvc74gMV-0" value="" style="edgeStyle=elbowEdgeStyle;elbow=vertical;endArrow=none;html=1;endFill=0;startArrow=none;startFill=0;endSize=3;startSize=3;" parent="HAR-AQ3kyV8gS99WFkk1-1" edge="1">
                    <mxGeometry width="50" height="50" relative="1" as="geometry">
                        <mxPoint x="169" y="784.9999999999998" as="sourcePoint"/>
                        <mxPoint x="256" y="785" as="targetPoint"/>
                        <Array as="points">
                            <mxPoint x="213" y="805"/>
                        </Array>
                    </mxGeometry>
                </mxCell>
                <mxCell id="sCuLyt8ogJQryvc74gMV-1" value="" style="edgeStyle=elbowEdgeStyle;elbow=vertical;endArrow=none;html=1;endFill=0;startArrow=none;startFill=0;endSize=3;startSize=3;" parent="HAR-AQ3kyV8gS99WFkk1-1" edge="1">
                    <mxGeometry width="50" height="50" relative="1" as="geometry">
                        <mxPoint x="169" y="787.4999999999998" as="sourcePoint"/>
                        <mxPoint x="295" y="787.5" as="targetPoint"/>
                        <Array as="points">
                            <mxPoint x="232" y="818"/>
                        </Array>
                    </mxGeometry>
                </mxCell>
                <mxCell id="sCuLyt8ogJQryvc74gMV-2" value="" style="edgeStyle=elbowEdgeStyle;elbow=vertical;endArrow=none;html=1;endFill=0;startArrow=none;startFill=0;endSize=3;startSize=3;" parent="HAR-AQ3kyV8gS99WFkk1-1" edge="1">
                    <mxGeometry width="50" height="50" relative="1" as="geometry">
                        <mxPoint x="169" y="784.9999999999998" as="sourcePoint"/>
                        <mxPoint x="337" y="785" as="targetPoint"/>
                        <Array as="points">
                            <mxPoint x="253" y="834"/>
                        </Array>
                    </mxGeometry>
                </mxCell>
                <mxCell id="sCuLyt8ogJQryvc74gMV-4" value="&lt;font style=&quot;font-size: 6px&quot;&gt;1.不换&lt;/font&gt;" style="text;html=1;strokeColor=none;fillColor=none;align=center;verticalAlign=middle;whiteSpace=wrap;rounded=0;spacing=0;" parent="HAR-AQ3kyV8gS99WFkk1-1" vertex="1">
                    <mxGeometry x="181" y="785" width="26" height="4" as="geometry"/>
                </mxCell>
                <mxCell id="sCuLyt8ogJQryvc74gMV-9" value="&lt;font style=&quot;font-size: 6px&quot;&gt;2.不换&lt;/font&gt;" style="text;html=1;strokeColor=none;fillColor=none;align=center;verticalAlign=middle;whiteSpace=wrap;rounded=0;spacing=0;" parent="HAR-AQ3kyV8gS99WFkk1-1" vertex="1">
                    <mxGeometry x="200" y="796" width="26" height="4" as="geometry"/>
                </mxCell>
                <mxCell id="sCuLyt8ogJQryvc74gMV-10" value="&lt;font style=&quot;font-size: 6px&quot;&gt;3.不换&lt;/font&gt;" style="text;html=1;strokeColor=none;fillColor=none;align=center;verticalAlign=middle;whiteSpace=wrap;rounded=0;spacing=0;" parent="HAR-AQ3kyV8gS99WFkk1-1" vertex="1">
                    <mxGeometry x="219" y="809" width="26" height="4" as="geometry"/>
                </mxCell>
                <mxCell id="sCuLyt8ogJQryvc74gMV-11" value="&lt;font style=&quot;font-size: 6px&quot;&gt;4..不换&lt;/font&gt;" style="text;html=1;strokeColor=none;fillColor=none;align=center;verticalAlign=middle;whiteSpace=wrap;rounded=0;spacing=0;" parent="HAR-AQ3kyV8gS99WFkk1-1" vertex="1">
                    <mxGeometry x="241" y="824" width="26" height="4" as="geometry"/>
                </mxCell>
                <mxCell id="sCuLyt8ogJQryvc74gMV-12" value="" style="edgeStyle=elbowEdgeStyle;elbow=vertical;endArrow=none;html=1;endFill=0;startArrow=none;startFill=0;endSize=3;startSize=3;" parent="HAR-AQ3kyV8gS99WFkk1-1" edge="1">
                    <mxGeometry width="50" height="50" relative="1" as="geometry">
                        <mxPoint x="170" y="784.9999999999998" as="sourcePoint"/>
                        <mxPoint x="377" y="785" as="targetPoint"/>
                        <Array as="points">
                            <mxPoint x="272" y="849"/>
                        </Array>
                    </mxGeometry>
                </mxCell>
                <mxCell id="sCuLyt8ogJQryvc74gMV-13" value="&lt;font style=&quot;font-size: 6px&quot;&gt;5.交换&lt;/font&gt;" style="text;html=1;strokeColor=none;fillColor=none;align=center;verticalAlign=middle;whiteSpace=wrap;rounded=0;spacing=0;" parent="HAR-AQ3kyV8gS99WFkk1-1" vertex="1">
                    <mxGeometry x="256" y="839" width="26" height="4" as="geometry"/>
                </mxCell>
                <mxCell id="sCuLyt8ogJQryvc74gMV-16" value="39" style="endArrow=none;html=1;" parent="HAR-AQ3kyV8gS99WFkk1-1" edge="1">
                    <mxGeometry width="50" height="50" relative="1" as="geometry">
                        <mxPoint x="369" y="855" as="sourcePoint"/>
                        <mxPoint x="391" y="855" as="targetPoint"/>
                    </mxGeometry>
                </mxCell>
                <mxCell id="sCuLyt8ogJQryvc74gMV-37" value="29" style="align=center;strokeColor=#A50040;html=1;fillColor=none;strokeWidth=2;fontColor=#ffffff;" parent="HAR-AQ3kyV8gS99WFkk1-1" vertex="1">
                    <mxGeometry x="168" y="916" width="22" height="22" as="geometry"/>
                </mxCell>
                <mxCell id="sCuLyt8ogJQryvc74gMV-38" value="62" style="align=center;strokeColor=#A50040;html=1;fillColor=#d80073;strokeWidth=2;fontColor=#ffffff;" parent="HAR-AQ3kyV8gS99WFkk1-1" vertex="1">
                    <mxGeometry x="209" y="916" width="22" height="22" as="geometry"/>
                </mxCell>
                <mxCell id="sCuLyt8ogJQryvc74gMV-39" value="71" style="align=center;strokeColor=#FFFF66;html=1;fillColor=none;strokeWidth=2;" parent="HAR-AQ3kyV8gS99WFkk1-1" vertex="1">
                    <mxGeometry x="250" y="916" width="22" height="22" as="geometry"/>
                </mxCell>
                <mxCell id="sCuLyt8ogJQryvc74gMV-40" value="87" style="align=center;html=1;strokeWidth=2;fillColor=none;strokeColor=#FFFF66;" parent="HAR-AQ3kyV8gS99WFkk1-1" vertex="1">
                    <mxGeometry x="290" y="916" width="22" height="22" as="geometry"/>
                </mxCell>
                <mxCell id="sCuLyt8ogJQryvc74gMV-41" value="43" style="align=center;strokeColor=#FFFF66;html=1;fillColor=none;strokeWidth=2;fontColor=#ffffff;" parent="HAR-AQ3kyV8gS99WFkk1-1" vertex="1">
                    <mxGeometry x="331" y="916" width="22" height="22" as="geometry"/>
                </mxCell>
                <mxCell id="sCuLyt8ogJQryvc74gMV-42" value="39" style="align=center;strokeColor=#FFFF66;html=1;fillColor=none;strokeWidth=2;fontColor=#ffffff;" parent="HAR-AQ3kyV8gS99WFkk1-1" vertex="1">
                    <mxGeometry x="372" y="916" width="22" height="22" as="geometry"/>
                </mxCell>
                <mxCell id="sCuLyt8ogJQryvc74gMV-44" value="" style="edgeStyle=elbowEdgeStyle;elbow=vertical;endArrow=none;html=1;endFill=0;startArrow=none;startFill=0;endSize=3;startSize=3;" parent="HAR-AQ3kyV8gS99WFkk1-1" edge="1">
                    <mxGeometry width="50" height="50" relative="1" as="geometry">
                        <mxPoint x="215.00000000000006" y="942.9999999999999" as="sourcePoint"/>
                        <mxPoint x="263" y="943" as="targetPoint"/>
                        <Array as="points">
                            <mxPoint x="239" y="950"/>
                        </Array>
                    </mxGeometry>
                </mxCell>
                <mxCell id="sCuLyt8ogJQryvc74gMV-45" value="&lt;font style=&quot;font-size: 6px&quot;&gt;1.不换&lt;/font&gt;" style="text;html=1;strokeColor=none;fillColor=none;align=center;verticalAlign=middle;whiteSpace=wrap;rounded=0;spacing=0;" parent="HAR-AQ3kyV8gS99WFkk1-1" vertex="1">
                    <mxGeometry x="226" y="941" width="26" height="4" as="geometry"/>
                </mxCell>
                <mxCell id="sCuLyt8ogJQryvc74gMV-46" value="" style="edgeStyle=elbowEdgeStyle;elbow=vertical;endArrow=none;html=1;endFill=0;startArrow=none;startFill=0;endSize=3;startSize=3;" parent="HAR-AQ3kyV8gS99WFkk1-1" edge="1">
                    <mxGeometry width="50" height="50" relative="1" as="geometry">
                        <mxPoint x="215" y="942.9999999999998" as="sourcePoint"/>
                        <mxPoint x="302" y="943" as="targetPoint"/>
                        <Array as="points">
                            <mxPoint x="259" y="963"/>
                        </Array>
                    </mxGeometry>
                </mxCell>
                <mxCell id="sCuLyt8ogJQryvc74gMV-47" value="&lt;font style=&quot;font-size: 6px&quot;&gt;2.不换&lt;/font&gt;" style="text;html=1;strokeColor=none;fillColor=none;align=center;verticalAlign=middle;whiteSpace=wrap;rounded=0;spacing=0;" parent="HAR-AQ3kyV8gS99WFkk1-1" vertex="1">
                    <mxGeometry x="246" y="955" width="26" height="4" as="geometry"/>
                </mxCell>
                <mxCell id="sCuLyt8ogJQryvc74gMV-48" value="" style="edgeStyle=elbowEdgeStyle;elbow=vertical;endArrow=none;html=1;endFill=0;startArrow=none;startFill=0;endSize=3;startSize=3;" parent="HAR-AQ3kyV8gS99WFkk1-1" edge="1">
                    <mxGeometry width="50" height="50" relative="1" as="geometry">
                        <mxPoint x="215" y="944.9999999999998" as="sourcePoint"/>
                        <mxPoint x="341" y="945" as="targetPoint"/>
                        <Array as="points">
                            <mxPoint x="278" y="975.5"/>
                        </Array>
                    </mxGeometry>
                </mxCell>
                <mxCell id="sCuLyt8ogJQryvc74gMV-49" value="&lt;font style=&quot;font-size: 6px&quot;&gt;4.交换&lt;/font&gt;" style="text;html=1;strokeColor=none;fillColor=none;align=center;verticalAlign=middle;whiteSpace=wrap;rounded=0;spacing=0;" parent="HAR-AQ3kyV8gS99WFkk1-1" vertex="1">
                    <mxGeometry x="264" y="966" width="26" height="4" as="geometry"/>
                </mxCell>
                <mxCell id="sCuLyt8ogJQryvc74gMV-50" value="43" style="endArrow=none;html=1;" parent="HAR-AQ3kyV8gS99WFkk1-1" edge="1">
                    <mxGeometry width="50" height="50" relative="1" as="geometry">
                        <mxPoint x="212" y="984" as="sourcePoint"/>
                        <mxPoint x="234.00000000000006" y="984" as="targetPoint"/>
                    </mxGeometry>
                </mxCell>
                <mxCell id="sCuLyt8ogJQryvc74gMV-52" value="62" style="endArrow=none;html=1;" parent="HAR-AQ3kyV8gS99WFkk1-1" edge="1">
                    <mxGeometry width="50" height="50" relative="1" as="geometry">
                        <mxPoint x="331" y="981" as="sourcePoint"/>
                        <mxPoint x="353.00000000000006" y="981" as="targetPoint"/>
                    </mxGeometry>
                </mxCell>
                <mxCell id="rqb1CrrwyegYZYvFVRAE-2" value="&lt;font style=&quot;font-size: 6px&quot;&gt;5.交换&lt;/font&gt;" style="text;html=1;strokeColor=none;fillColor=none;align=center;verticalAlign=middle;whiteSpace=wrap;rounded=0;spacing=0;" parent="HAR-AQ3kyV8gS99WFkk1-1" vertex="1">
                    <mxGeometry x="305" y="990" width="26" height="4" as="geometry"/>
                </mxCell>
                <mxCell id="rqb1CrrwyegYZYvFVRAE-3" value="39" style="endArrow=none;html=1;" parent="HAR-AQ3kyV8gS99WFkk1-1" edge="1">
                    <mxGeometry width="50" height="50" relative="1" as="geometry">
                        <mxPoint x="213" y="1005" as="sourcePoint"/>
                        <mxPoint x="235.00000000000006" y="1005" as="targetPoint"/>
                    </mxGeometry>
                </mxCell>
                <mxCell id="rqb1CrrwyegYZYvFVRAE-4" value="43" style="endArrow=none;html=1;" parent="HAR-AQ3kyV8gS99WFkk1-1" edge="1">
                    <mxGeometry width="50" height="50" relative="1" as="geometry">
                        <mxPoint x="372" y="1001" as="sourcePoint"/>
                        <mxPoint x="394.00000000000006" y="1001" as="targetPoint"/>
                    </mxGeometry>
                </mxCell>
                <mxCell id="rqb1CrrwyegYZYvFVRAE-5" value="" style="endArrow=none;html=1;" parent="HAR-AQ3kyV8gS99WFkk1-1" edge="1">
                    <mxGeometry width="50" height="50" relative="1" as="geometry">
                        <mxPoint x="177" y="1025" as="sourcePoint"/>
                        <mxPoint x="389" y="1025" as="targetPoint"/>
                    </mxGeometry>
                </mxCell>
                <mxCell id="rqb1CrrwyegYZYvFVRAE-6" value="29 39 71 87 62 43" style="edgeLabel;html=1;align=center;verticalAlign=middle;resizable=0;points=[];" parent="rqb1CrrwyegYZYvFVRAE-5" vertex="1" connectable="0">
                    <mxGeometry x="0.0616" y="-1" relative="1" as="geometry">
                        <mxPoint as="offset"/>
                    </mxGeometry>
                </mxCell>
                <mxCell id="rqb1CrrwyegYZYvFVRAE-7" value="29" style="align=center;strokeColor=#A50040;html=1;fillColor=none;strokeWidth=2;fontColor=#ffffff;" parent="HAR-AQ3kyV8gS99WFkk1-1" vertex="1">
                    <mxGeometry x="168" y="1088" width="22" height="22" as="geometry"/>
                </mxCell>
                <mxCell id="rqb1CrrwyegYZYvFVRAE-8" value="39" style="align=center;strokeColor=#A50040;html=1;fillColor=none;strokeWidth=2;fontColor=#ffffff;" parent="HAR-AQ3kyV8gS99WFkk1-1" vertex="1">
                    <mxGeometry x="209" y="1088" width="22" height="22" as="geometry"/>
                </mxCell>
                <mxCell id="rqb1CrrwyegYZYvFVRAE-9" value="71" style="align=center;strokeColor=#A50040;html=1;fillColor=#d80073;strokeWidth=2;fontColor=#ffffff;" parent="HAR-AQ3kyV8gS99WFkk1-1" vertex="1">
                    <mxGeometry x="250" y="1088" width="22" height="22" as="geometry"/>
                </mxCell>
                <mxCell id="rqb1CrrwyegYZYvFVRAE-10" value="87" style="align=center;html=1;strokeWidth=2;fillColor=none;strokeColor=#FFFF66;" parent="HAR-AQ3kyV8gS99WFkk1-1" vertex="1">
                    <mxGeometry x="290" y="1088" width="22" height="22" as="geometry"/>
                </mxCell>
                <mxCell id="rqb1CrrwyegYZYvFVRAE-11" value="62" style="align=center;strokeColor=#FFFF66;html=1;fillColor=none;strokeWidth=2;fontColor=#ffffff;" parent="HAR-AQ3kyV8gS99WFkk1-1" vertex="1">
                    <mxGeometry x="331" y="1088" width="22" height="22" as="geometry"/>
                </mxCell>
                <mxCell id="rqb1CrrwyegYZYvFVRAE-12" value="43" style="align=center;strokeColor=#FFFF66;html=1;fillColor=none;strokeWidth=2;fontColor=#ffffff;" parent="HAR-AQ3kyV8gS99WFkk1-1" vertex="1">
                    <mxGeometry x="372" y="1088" width="22" height="22" as="geometry"/>
                </mxCell>
                <mxCell id="rqb1CrrwyegYZYvFVRAE-13" value="" style="edgeStyle=elbowEdgeStyle;elbow=vertical;endArrow=none;html=1;endFill=0;startArrow=none;startFill=0;endSize=3;startSize=3;" parent="HAR-AQ3kyV8gS99WFkk1-1" edge="1">
                    <mxGeometry width="50" height="50" relative="1" as="geometry">
                        <mxPoint x="257" y="1114" as="sourcePoint"/>
                        <mxPoint x="305" y="1114" as="targetPoint"/>
                        <Array as="points">
                            <mxPoint x="281" y="1121"/>
                        </Array>
                    </mxGeometry>
                </mxCell>
                <mxCell id="rqb1CrrwyegYZYvFVRAE-14" value="&lt;font style=&quot;font-size: 6px&quot;&gt;1.不换&lt;/font&gt;" style="text;html=1;strokeColor=none;fillColor=none;align=center;verticalAlign=middle;whiteSpace=wrap;rounded=0;spacing=0;" parent="HAR-AQ3kyV8gS99WFkk1-1" vertex="1">
                    <mxGeometry x="268" y="1112" width="26" height="4" as="geometry"/>
                </mxCell>
                <mxCell id="rqb1CrrwyegYZYvFVRAE-18" value="" style="edgeStyle=elbowEdgeStyle;elbow=vertical;endArrow=none;html=1;endFill=0;startArrow=none;startFill=0;endSize=3;startSize=3;" parent="HAR-AQ3kyV8gS99WFkk1-1" edge="1">
                    <mxGeometry width="50" height="50" relative="1" as="geometry">
                        <mxPoint x="257" y="1112.9999999999998" as="sourcePoint"/>
                        <mxPoint x="344" y="1113" as="targetPoint"/>
                        <Array as="points">
                            <mxPoint x="301" y="1133"/>
                        </Array>
                    </mxGeometry>
                </mxCell>
                <mxCell id="rqb1CrrwyegYZYvFVRAE-19" value="&lt;font style=&quot;font-size: 6px&quot;&gt;2.交换&lt;/font&gt;" style="text;html=1;strokeColor=none;fillColor=none;align=center;verticalAlign=middle;whiteSpace=wrap;rounded=0;spacing=0;" parent="HAR-AQ3kyV8gS99WFkk1-1" vertex="1">
                    <mxGeometry x="288" y="1125" width="26" height="4" as="geometry"/>
                </mxCell>
                <mxCell id="rqb1CrrwyegYZYvFVRAE-20" value="43" style="endArrow=none;html=1;" parent="HAR-AQ3kyV8gS99WFkk1-1" edge="1">
                    <mxGeometry width="50" height="50" relative="1" as="geometry">
                        <mxPoint x="212" y="984" as="sourcePoint"/>
                        <mxPoint x="234.00000000000006" y="984" as="targetPoint"/>
                    </mxGeometry>
                </mxCell>
                <mxCell id="rqb1CrrwyegYZYvFVRAE-21" value="62" style="endArrow=none;html=1;" parent="HAR-AQ3kyV8gS99WFkk1-1" edge="1">
                    <mxGeometry width="50" height="50" relative="1" as="geometry">
                        <mxPoint x="250" y="1136" as="sourcePoint"/>
                        <mxPoint x="272.00000000000006" y="1136" as="targetPoint"/>
                    </mxGeometry>
                </mxCell>
                <mxCell id="rqb1CrrwyegYZYvFVRAE-22" value="71" style="endArrow=none;html=1;" parent="HAR-AQ3kyV8gS99WFkk1-1" edge="1">
                    <mxGeometry width="50" height="50" relative="1" as="geometry">
                        <mxPoint x="331" y="1137" as="sourcePoint"/>
                        <mxPoint x="353" y="1137" as="targetPoint"/>
                    </mxGeometry>
                </mxCell>
                <mxCell id="rqb1CrrwyegYZYvFVRAE-31" value="" style="endArrow=none;html=1;startArrow=none;startFill=0;endFill=0;startSize=3;endSize=3;edgeStyle=orthogonalEdgeStyle;" parent="HAR-AQ3kyV8gS99WFkk1-1" edge="1">
                    <mxGeometry width="50" height="50" relative="1" as="geometry">
                        <mxPoint x="262" y="1145" as="sourcePoint"/>
                        <mxPoint x="383" y="1114" as="targetPoint"/>
                        <Array as="points">
                            <mxPoint x="262" y="1152"/>
                            <mxPoint x="383" y="1152"/>
                            <mxPoint x="383" y="1114"/>
                        </Array>
                    </mxGeometry>
                </mxCell>
                <mxCell id="rqb1CrrwyegYZYvFVRAE-32" value="&lt;font style=&quot;font-size: 6px&quot;&gt;3.交换&lt;/font&gt;" style="text;html=1;strokeColor=none;fillColor=none;align=center;verticalAlign=middle;whiteSpace=wrap;rounded=0;spacing=0;" parent="HAR-AQ3kyV8gS99WFkk1-1" vertex="1">
                    <mxGeometry x="307" y="1142" width="26" height="4" as="geometry"/>
                </mxCell>
                <mxCell id="rqb1CrrwyegYZYvFVRAE-33" value="43" style="endArrow=none;html=1;" parent="HAR-AQ3kyV8gS99WFkk1-1" edge="1">
                    <mxGeometry width="50" height="50" relative="1" as="geometry">
                        <mxPoint x="251" y="1157" as="sourcePoint"/>
                        <mxPoint x="273.00000000000006" y="1157" as="targetPoint"/>
                    </mxGeometry>
                </mxCell>
                <mxCell id="rqb1CrrwyegYZYvFVRAE-34" value="62" style="endArrow=none;html=1;" parent="HAR-AQ3kyV8gS99WFkk1-1" edge="1">
                    <mxGeometry width="50" height="50" relative="1" as="geometry">
                        <mxPoint x="372" y="1156" as="sourcePoint"/>
                        <mxPoint x="394.00000000000006" y="1156" as="targetPoint"/>
                    </mxGeometry>
                </mxCell>
                <mxCell id="rqb1CrrwyegYZYvFVRAE-35" value="" style="endArrow=none;html=1;" parent="HAR-AQ3kyV8gS99WFkk1-1" edge="1">
                    <mxGeometry width="50" height="50" relative="1" as="geometry">
                        <mxPoint x="171" y="1184" as="sourcePoint"/>
                        <mxPoint x="383" y="1184" as="targetPoint"/>
                    </mxGeometry>
                </mxCell>
                <mxCell id="rqb1CrrwyegYZYvFVRAE-36" value="29 39 43 87 71 62" style="edgeLabel;html=1;align=center;verticalAlign=middle;resizable=0;points=[];" parent="rqb1CrrwyegYZYvFVRAE-35" vertex="1" connectable="0">
                    <mxGeometry x="0.0616" y="-1" relative="1" as="geometry">
                        <mxPoint as="offset"/>
                    </mxGeometry>
                </mxCell>
                <mxCell id="rqb1CrrwyegYZYvFVRAE-37" value="29" style="align=center;strokeColor=#A50040;html=1;fillColor=none;strokeWidth=2;fontColor=#ffffff;" parent="HAR-AQ3kyV8gS99WFkk1-1" vertex="1">
                    <mxGeometry x="168" y="1227" width="22" height="22" as="geometry"/>
                </mxCell>
                <mxCell id="rqb1CrrwyegYZYvFVRAE-38" value="39" style="align=center;strokeColor=#A50040;html=1;fillColor=none;strokeWidth=2;fontColor=#ffffff;" parent="HAR-AQ3kyV8gS99WFkk1-1" vertex="1">
                    <mxGeometry x="209" y="1227" width="22" height="22" as="geometry"/>
                </mxCell>
                <mxCell id="rqb1CrrwyegYZYvFVRAE-39" value="43" style="align=center;strokeColor=#A50040;html=1;fillColor=none;strokeWidth=2;fontColor=#ffffff;" parent="HAR-AQ3kyV8gS99WFkk1-1" vertex="1">
                    <mxGeometry x="250" y="1227" width="22" height="22" as="geometry"/>
                </mxCell>
                <mxCell id="rqb1CrrwyegYZYvFVRAE-40" value="87" style="align=center;html=1;strokeWidth=2;fillColor=#d80073;strokeColor=#A50040;fontColor=#ffffff;" parent="HAR-AQ3kyV8gS99WFkk1-1" vertex="1">
                    <mxGeometry x="290" y="1227" width="22" height="22" as="geometry"/>
                </mxCell>
                <mxCell id="rqb1CrrwyegYZYvFVRAE-41" value="71" style="align=center;strokeColor=#FFFF66;html=1;fillColor=none;strokeWidth=2;fontColor=#ffffff;" parent="HAR-AQ3kyV8gS99WFkk1-1" vertex="1">
                    <mxGeometry x="331" y="1227" width="22" height="22" as="geometry"/>
                </mxCell>
                <mxCell id="rqb1CrrwyegYZYvFVRAE-42" value="62" style="align=center;strokeColor=#FFFF66;html=1;fillColor=none;strokeWidth=2;fontColor=#ffffff;" parent="HAR-AQ3kyV8gS99WFkk1-1" vertex="1">
                    <mxGeometry x="372" y="1227" width="22" height="22" as="geometry"/>
                </mxCell>
                <mxCell id="rqb1CrrwyegYZYvFVRAE-44" value="&lt;font style=&quot;font-size: 6px&quot;&gt;1.交换&lt;/font&gt;" style="text;html=1;strokeColor=none;fillColor=none;align=center;verticalAlign=middle;whiteSpace=wrap;rounded=0;spacing=0;" parent="HAR-AQ3kyV8gS99WFkk1-1" vertex="1">
                    <mxGeometry x="307" y="1249" width="26" height="4" as="geometry"/>
                </mxCell>
                <mxCell id="rqb1CrrwyegYZYvFVRAE-47" value="87" style="endArrow=none;html=1;" parent="HAR-AQ3kyV8gS99WFkk1-1" edge="1">
                    <mxGeometry width="50" height="50" relative="1" as="geometry">
                        <mxPoint x="333" y="1264" as="sourcePoint"/>
                        <mxPoint x="355" y="1264" as="targetPoint"/>
                    </mxGeometry>
                </mxCell>
                <mxCell id="rqb1CrrwyegYZYvFVRAE-48" value="71" style="endArrow=none;html=1;" parent="HAR-AQ3kyV8gS99WFkk1-1" edge="1">
                    <mxGeometry width="50" height="50" relative="1" as="geometry">
                        <mxPoint x="289" y="1264" as="sourcePoint"/>
                        <mxPoint x="311" y="1264" as="targetPoint"/>
                    </mxGeometry>
                </mxCell>
                <mxCell id="rqb1CrrwyegYZYvFVRAE-49" value="" style="endArrow=none;html=1;startArrow=none;startFill=0;endFill=0;startSize=3;endSize=3;edgeStyle=orthogonalEdgeStyle;" parent="HAR-AQ3kyV8gS99WFkk1-1" edge="1">
                    <mxGeometry width="50" height="50" relative="1" as="geometry">
                        <mxPoint x="299" y="1274" as="sourcePoint"/>
                        <mxPoint x="386" y="1256" as="targetPoint"/>
                        <Array as="points">
                            <mxPoint x="299" y="1281"/>
                            <mxPoint x="386" y="1281"/>
                        </Array>
                    </mxGeometry>
                </mxCell>
                <mxCell id="rqb1CrrwyegYZYvFVRAE-50" value="&lt;font style=&quot;font-size: 6px&quot;&gt;2.交换&lt;/font&gt;" style="text;html=1;strokeColor=none;fillColor=none;align=center;verticalAlign=middle;whiteSpace=wrap;rounded=0;spacing=0;" parent="HAR-AQ3kyV8gS99WFkk1-1" vertex="1">
                    <mxGeometry x="326" y="1272" width="26" height="4" as="geometry"/>
                </mxCell>
                <mxCell id="rqb1CrrwyegYZYvFVRAE-51" value="71" style="endArrow=none;html=1;" parent="HAR-AQ3kyV8gS99WFkk1-1" edge="1">
                    <mxGeometry width="50" height="50" relative="1" as="geometry">
                        <mxPoint x="374" y="1285" as="sourcePoint"/>
                        <mxPoint x="396" y="1285" as="targetPoint"/>
                    </mxGeometry>
                </mxCell>
                <mxCell id="rqb1CrrwyegYZYvFVRAE-52" value="62" style="endArrow=none;html=1;" parent="HAR-AQ3kyV8gS99WFkk1-1" edge="1">
                    <mxGeometry width="50" height="50" relative="1" as="geometry">
                        <mxPoint x="289" y="1286" as="sourcePoint"/>
                        <mxPoint x="311" y="1286" as="targetPoint"/>
                    </mxGeometry>
                </mxCell>
                <mxCell id="rqb1CrrwyegYZYvFVRAE-53" value="" style="endArrow=none;html=1;" parent="HAR-AQ3kyV8gS99WFkk1-1" edge="1">
                    <mxGeometry width="50" height="50" relative="1" as="geometry">
                        <mxPoint x="175" y="1302" as="sourcePoint"/>
                        <mxPoint x="387" y="1302" as="targetPoint"/>
                    </mxGeometry>
                </mxCell>
                <mxCell id="rqb1CrrwyegYZYvFVRAE-54" value="29 39 43 62 87 71" style="edgeLabel;html=1;align=center;verticalAlign=middle;resizable=0;points=[];" parent="rqb1CrrwyegYZYvFVRAE-53" vertex="1" connectable="0">
                    <mxGeometry x="0.0616" y="-1" relative="1" as="geometry">
                        <mxPoint as="offset"/>
                    </mxGeometry>
                </mxCell>
                <mxCell id="rqb1CrrwyegYZYvFVRAE-55" value="" style="edgeStyle=elbowEdgeStyle;elbow=vertical;endArrow=none;html=1;endFill=0;startArrow=none;startFill=0;endSize=3;startSize=3;" parent="HAR-AQ3kyV8gS99WFkk1-1" edge="1">
                    <mxGeometry width="50" height="50" relative="1" as="geometry">
                        <mxPoint x="297" y="1251" as="sourcePoint"/>
                        <mxPoint x="345" y="1251" as="targetPoint"/>
                        <Array as="points">
                            <mxPoint x="321" y="1258"/>
                        </Array>
                    </mxGeometry>
                </mxCell>
                <mxCell id="rqb1CrrwyegYZYvFVRAE-59" value="29" style="align=center;strokeColor=#A50040;html=1;fillColor=none;strokeWidth=2;fontColor=#ffffff;" parent="HAR-AQ3kyV8gS99WFkk1-1" vertex="1">
                    <mxGeometry x="171" y="1348" width="22" height="22" as="geometry"/>
                </mxCell>
                <mxCell id="rqb1CrrwyegYZYvFVRAE-60" value="39" style="align=center;strokeColor=#A50040;html=1;fillColor=none;strokeWidth=2;fontColor=#ffffff;" parent="HAR-AQ3kyV8gS99WFkk1-1" vertex="1">
                    <mxGeometry x="212" y="1348" width="22" height="22" as="geometry"/>
                </mxCell>
                <mxCell id="rqb1CrrwyegYZYvFVRAE-61" value="43" style="align=center;strokeColor=#A50040;html=1;fillColor=none;strokeWidth=2;fontColor=#ffffff;" parent="HAR-AQ3kyV8gS99WFkk1-1" vertex="1">
                    <mxGeometry x="253" y="1348" width="22" height="22" as="geometry"/>
                </mxCell>
                <mxCell id="rqb1CrrwyegYZYvFVRAE-62" value="62" style="align=center;html=1;strokeWidth=2;fillColor=none;strokeColor=#A50040;fontColor=#ffffff;" parent="HAR-AQ3kyV8gS99WFkk1-1" vertex="1">
                    <mxGeometry x="293" y="1348" width="22" height="22" as="geometry"/>
                </mxCell>
                <mxCell id="rqb1CrrwyegYZYvFVRAE-63" value="87" style="align=center;strokeColor=#A50040;html=1;fillColor=#d80073;strokeWidth=2;fontColor=#ffffff;" parent="HAR-AQ3kyV8gS99WFkk1-1" vertex="1">
                    <mxGeometry x="334" y="1348" width="22" height="22" as="geometry"/>
                </mxCell>
                <mxCell id="rqb1CrrwyegYZYvFVRAE-64" value="71" style="align=center;strokeColor=#FFFF66;html=1;fillColor=none;strokeWidth=2;fontColor=#ffffff;" parent="HAR-AQ3kyV8gS99WFkk1-1" vertex="1">
                    <mxGeometry x="375" y="1348" width="22" height="22" as="geometry"/>
                </mxCell>
                <mxCell id="rqb1CrrwyegYZYvFVRAE-65" value="&lt;font style=&quot;font-size: 6px&quot;&gt;1.交换&lt;/font&gt;" style="text;html=1;strokeColor=none;fillColor=none;align=center;verticalAlign=middle;whiteSpace=wrap;rounded=0;spacing=0;" parent="HAR-AQ3kyV8gS99WFkk1-1" vertex="1">
                    <mxGeometry x="352" y="1370" width="26" height="4" as="geometry"/>
                </mxCell>
                <mxCell id="rqb1CrrwyegYZYvFVRAE-66" value="87" style="endArrow=none;html=1;" parent="HAR-AQ3kyV8gS99WFkk1-1" edge="1">
                    <mxGeometry width="50" height="50" relative="1" as="geometry">
                        <mxPoint x="378" y="1385" as="sourcePoint"/>
                        <mxPoint x="400" y="1385" as="targetPoint"/>
                    </mxGeometry>
                </mxCell>
                <mxCell id="rqb1CrrwyegYZYvFVRAE-67" value="71" style="endArrow=none;html=1;" parent="HAR-AQ3kyV8gS99WFkk1-1" edge="1">
                    <mxGeometry width="50" height="50" relative="1" as="geometry">
                        <mxPoint x="334" y="1385" as="sourcePoint"/>
                        <mxPoint x="356" y="1385" as="targetPoint"/>
                    </mxGeometry>
                </mxCell>
                <mxCell id="rqb1CrrwyegYZYvFVRAE-72" value="" style="endArrow=none;html=1;" parent="HAR-AQ3kyV8gS99WFkk1-1" edge="1">
                    <mxGeometry width="50" height="50" relative="1" as="geometry">
                        <mxPoint x="178" y="1400" as="sourcePoint"/>
                        <mxPoint x="390" y="1400" as="targetPoint"/>
                    </mxGeometry>
                </mxCell>
                <mxCell id="rqb1CrrwyegYZYvFVRAE-73" value="29 39 43 62 71 87" style="edgeLabel;html=1;align=center;verticalAlign=middle;resizable=0;points=[];" parent="rqb1CrrwyegYZYvFVRAE-72" vertex="1" connectable="0">
                    <mxGeometry x="0.0616" y="-1" relative="1" as="geometry">
                        <mxPoint as="offset"/>
                    </mxGeometry>
                </mxCell>
                <mxCell id="rqb1CrrwyegYZYvFVRAE-74" value="" style="edgeStyle=elbowEdgeStyle;elbow=vertical;endArrow=none;html=1;endFill=0;startArrow=none;startFill=0;endSize=3;startSize=3;" parent="HAR-AQ3kyV8gS99WFkk1-1" edge="1">
                    <mxGeometry width="50" height="50" relative="1" as="geometry">
                        <mxPoint x="342" y="1372" as="sourcePoint"/>
                        <mxPoint x="390" y="1372" as="targetPoint"/>
                        <Array as="points">
                            <mxPoint x="366" y="1379"/>
                        </Array>
                    </mxGeometry>
                </mxCell>
                <mxCell id="rqb1CrrwyegYZYvFVRAE-75" value="29" style="align=center;strokeColor=#A50040;html=1;fillColor=none;strokeWidth=2;fontColor=#ffffff;" parent="HAR-AQ3kyV8gS99WFkk1-1" vertex="1">
                    <mxGeometry x="171" y="1443" width="22" height="22" as="geometry"/>
                </mxCell>
                <mxCell id="rqb1CrrwyegYZYvFVRAE-76" value="39" style="align=center;strokeColor=#A50040;html=1;fillColor=none;strokeWidth=2;fontColor=#ffffff;" parent="HAR-AQ3kyV8gS99WFkk1-1" vertex="1">
                    <mxGeometry x="212" y="1443" width="22" height="22" as="geometry"/>
                </mxCell>
                <mxCell id="rqb1CrrwyegYZYvFVRAE-77" value="43" style="align=center;strokeColor=#A50040;html=1;fillColor=none;strokeWidth=2;fontColor=#ffffff;" parent="HAR-AQ3kyV8gS99WFkk1-1" vertex="1">
                    <mxGeometry x="253" y="1443" width="22" height="22" as="geometry"/>
                </mxCell>
                <mxCell id="rqb1CrrwyegYZYvFVRAE-78" value="62" style="align=center;html=1;strokeWidth=2;fillColor=none;strokeColor=#A50040;fontColor=#ffffff;" parent="HAR-AQ3kyV8gS99WFkk1-1" vertex="1">
                    <mxGeometry x="293" y="1443" width="22" height="22" as="geometry"/>
                </mxCell>
                <mxCell id="rqb1CrrwyegYZYvFVRAE-79" value="71" style="align=center;strokeColor=#A50040;html=1;fillColor=none;strokeWidth=2;fontColor=#ffffff;" parent="HAR-AQ3kyV8gS99WFkk1-1" vertex="1">
                    <mxGeometry x="334" y="1443" width="22" height="22" as="geometry"/>
                </mxCell>
                <mxCell id="rqb1CrrwyegYZYvFVRAE-80" value="87" style="align=center;strokeColor=#FFFF66;html=1;fillColor=none;strokeWidth=2;fontColor=#ffffff;" parent="HAR-AQ3kyV8gS99WFkk1-1" vertex="1">
                    <mxGeometry x="375" y="1443" width="22" height="22" as="geometry"/>
                </mxCell>
                <mxCell id="rqb1CrrwyegYZYvFVRAE-84" value="" style="endArrow=none;html=1;" parent="HAR-AQ3kyV8gS99WFkk1-1" edge="1">
                    <mxGeometry width="50" height="50" relative="1" as="geometry">
                        <mxPoint x="177" y="1480" as="sourcePoint"/>
                        <mxPoint x="389" y="1480" as="targetPoint"/>
                    </mxGeometry>
                </mxCell>
                <mxCell id="rqb1CrrwyegYZYvFVRAE-85" value="29 39 43 62 71 87" style="edgeLabel;html=1;align=center;verticalAlign=middle;resizable=0;points=[];" parent="rqb1CrrwyegYZYvFVRAE-84" vertex="1" connectable="0">
                    <mxGeometry x="0.0616" y="-1" relative="1" as="geometry">
                        <mxPoint as="offset"/>
                    </mxGeometry>
                </mxCell>
                <mxCell id="rqb1CrrwyegYZYvFVRAE-88" value="第 1 个位置" style="align=center;strokeColor=#3700CC;html=1;fillColor=#6a00ff;strokeWidth=2;fontColor=#ffffff;" parent="HAR-AQ3kyV8gS99WFkk1-1" vertex="1">
                    <mxGeometry x="163" y="732" width="72" height="22" as="geometry"/>
                </mxCell>
                <mxCell id="rqb1CrrwyegYZYvFVRAE-90" value="第 2 个位置" style="align=center;strokeColor=#3700CC;html=1;fillColor=#6a00ff;strokeWidth=2;fontColor=#ffffff;" parent="HAR-AQ3kyV8gS99WFkk1-1" vertex="1">
                    <mxGeometry x="168" y="887" width="72" height="22" as="geometry"/>
                </mxCell>
                <mxCell id="rqb1CrrwyegYZYvFVRAE-91" value="第 3 个位置" style="align=center;strokeColor=#3700CC;html=1;fillColor=#6a00ff;strokeWidth=2;fontColor=#ffffff;" parent="HAR-AQ3kyV8gS99WFkk1-1" vertex="1">
                    <mxGeometry x="168" y="1058" width="72" height="22" as="geometry"/>
                </mxCell>
                <mxCell id="rqb1CrrwyegYZYvFVRAE-92" value="第 4 个位置" style="align=center;strokeColor=#3700CC;html=1;fillColor=#6a00ff;strokeWidth=2;fontColor=#ffffff;" parent="HAR-AQ3kyV8gS99WFkk1-1" vertex="1">
                    <mxGeometry x="168" y="1198" width="72" height="22" as="geometry"/>
                </mxCell>
                <mxCell id="rqb1CrrwyegYZYvFVRAE-93" value="第 5 个位置" style="align=center;strokeColor=#3700CC;html=1;fillColor=#6a00ff;strokeWidth=2;fontColor=#ffffff;" parent="HAR-AQ3kyV8gS99WFkk1-1" vertex="1">
                    <mxGeometry x="168" y="1320" width="72" height="22" as="geometry"/>
                </mxCell>
                <mxCell id="rqb1CrrwyegYZYvFVRAE-94" value="第 6 个位置" style="align=center;strokeColor=#3700CC;html=1;fillColor=#6a00ff;strokeWidth=2;fontColor=#ffffff;" parent="HAR-AQ3kyV8gS99WFkk1-1" vertex="1">
                    <mxGeometry x="171" y="1412" width="72" height="22" as="geometry"/>
                </mxCell>
            </root>
        </mxGraphModel>
    </diagram>
</mxfile>